<svg version="1.2" xmlns="http://www.w3.org/2000/svg" viewBox="0 0 1561 416" width="116" height="32">
	<title>logo-teal-svg</title>
	<style>
		.s0 { fill: #00ccbc } 
	</style>
	<path id="Layer" fill-rule="evenodd" class="s0" d="m569.8 311.6l-3.6-16.7c-10.2 12.4-24.8 19.5-41.7 19.5-34 0-60.4-27.9-60.4-69 0-41 26.4-69 60.4-69 16.6 0 30.7 6.9 40.9 18.8v-74.7h34v163.7l5.9 27.4c0 0-35.5 0-35.5 0zm672.5-98.5c-11.3 0-20 5.4-24.6 14.1v84.4h-34v-106.5l-5.6-25.9h35l3.6 16.7c8.2-12.8 21-19.7 36.3-19.7 8.5 0 17.2 2 24.6 6.6l-16.1 36.2c-5.9-4.1-12.3-5.9-19.2-5.9zm99.7 101.3c-38.6 0-67.2-27.9-67.2-69 0-41 28.6-69 67.2-69 38.7 0 67.3 28 67.3 69 0 41.1-28.6 69-67.3 69zm-776.3-69c0-18.4-15.4-33.3-34.3-33.3-19 0-34.3 14.9-34.3 33.3 0 18.5 15.3 33.4 34.3 33.4 18.9 0 34.3-14.9 34.3-33.4zm994.3 0c0 41.1-28.6 69-67.3 69-38.6 0-67.3-27.9-67.3-69 0-41 28.7-69 67.3-69 38.7 0 67.3 28 67.3 69zm-866.8 68.7c-43.3 0-71.1-27-71.1-69 0-41.3 28.1-69 66.5-69 38.1 0 66.5 27.4 66.5 68.5 0 5.9-0.5 10.7-1.6 15.6h-95.6c5.3 12.8 17.9 19.8 35.8 19.8 13.8 0 27.4-3.9 39.6-10.3l13.1 29.2c-15.6 10-34.3 15.2-53.2 15.2zm406.3 0.3c-43.2 0-71.1-26.9-71.1-69 0-41.3 28.2-69 66.5-69 38.2 0 66.5 27.5 66.5 68.5 0 5.9-0.5 10.8-1.5 15.7h-95.7c5.4 12.8 17.9 19.7 35.8 19.7 13.9 0 27.4-3.8 39.7-10.2l13.1 29.2c-15.7 10-34.3 15.1-53.3 15.1zm-170.6-2.8l-35.5-132.4h36.6l26.1 107.3 26-107.3h37.1l-35.5 132.4c0 0-54.8 0-54.8 0zm-87.7-132.4h34v132.4h-34c0 0 0-132.4 0-132.4zm-153.3 30.8c-17.3 0-28.9 8.2-32.7 23.4h65.5c-3.6-15.2-15.1-23.4-32.8-23.4zm839.1 35.4c0-18.4-15.3-33.3-34.3-33.3-18.9 0-34.3 14.9-34.3 33.3 0 18.5 15.4 33.4 34.3 33.4 19 0 34.3-14.9 34.3-33.4zm-432.1-35.4c-17.4 0-28.9 8.2-32.7 23.4h65.5c-3.6-15.2-15.1-23.4-32.8-23.4zm281.4 35.4c0-18.4-15.3-33.3-34.3-33.3-18.9 0-34.2 14.9-34.2 33.3 0 18.5 15.3 33.4 34.2 33.4 19 0 34.3-14.9 34.3-33.4zm-599.6 66.2v-191.1h34v191.1c0 0-34 0-34 0zm81.5-150.6c-11.8 0-21.4-9.6-21.4-21.5 0-12 9.6-21.6 21.4-21.6 11.8 0 21.3 9.6 21.3 21.6 0 11.9-9.5 21.5-21.3 21.5zm-584.4-161l106 11-28.8 270.8-60.4 134.2-264.1-55.5-26.5-123.6 150.2-31.5-33.2-154.7 104.1-21.9 33.3 154.6zm-83.5 266.1c5.5-4.9 7.2-11.2 5.4-18.8-1.2-5.2-7.3-8.6-10.9-10.2-1.7-0.8-3.6-1.2-5.5-1.2-5.1 0.1-15.2 1.3-17.4 9.5-2.9 11.1 0.5 20.2 8.1 22.7 7.7 2.5 14.9 3 20.3-2zm76.5 8.6c4-6.9 5.9-13.7 2.1-19.9-3.8-6.2-10.4-9.6-18.1-9.4-4.8 0.1-8.9 4.2-11.3 7.2-1.8 2.3-3 5-3.4 7.8-0.7 5.2-0.8 13.7 6.1 17 10.2 4.9 20.6 4 24.6-2.7z"/>
</svg>